# Blender v2.79 (sub 0) OBJ File: 'mediumtank.blend'
# www.blender.org
mtllib mediumtank_base.mtl
o Cube
v 0.532287 -0.148375 -1.000000
v 0.532287 -0.148375 1.000000
v -0.532287 -0.148375 1.000000
v -0.532287 -0.148375 -1.000000
v 0.532287 0.148375 -0.999999
v 0.532286 0.148375 1.000001
v -0.532287 0.148375 1.000000
v -0.532287 0.148375 -1.000000
v 0.285907 -0.100706 -0.911521
v 0.512855 -0.100706 -0.911521
v 0.285907 -0.139111 -0.894007
v 0.512855 -0.139111 -0.894007
v 0.285907 -0.176041 -0.842136
v 0.512855 -0.176040 -0.842136
v 0.285907 -0.210075 -0.757902
v 0.512855 -0.210075 -0.757902
v 0.285907 -0.239906 -0.644543
v 0.512855 -0.239906 -0.644543
v 0.285907 -0.264388 -0.506414
v 0.512855 -0.264388 -0.506414
v 0.285907 -0.282580 -0.348824
v 0.512855 -0.282580 -0.348824
v 0.285907 -0.293782 -0.177829
v 0.512855 -0.293782 -0.177829
v 0.285907 -0.297565 -0.000000
v 0.512855 -0.297565 -0.000000
v 0.285907 -0.293782 0.177829
v 0.512855 -0.293782 0.177829
v 0.285907 -0.282580 0.348824
v 0.512855 -0.282580 0.348824
v 0.285907 -0.264388 0.506414
v 0.512855 -0.264388 0.506414
v 0.285907 -0.239906 0.644543
v 0.512855 -0.239906 0.644543
v 0.285907 -0.210075 0.757902
v 0.512855 -0.210075 0.757902
v 0.285907 -0.176041 0.842136
v 0.512855 -0.176040 0.842136
v 0.285907 -0.139111 0.894006
v 0.512855 -0.139111 0.894006
v 0.285907 -0.100706 0.911521
v 0.512855 -0.100706 0.911521
v 0.285907 -0.062301 0.894006
v 0.512855 -0.062301 0.894006
v 0.285907 -0.025371 0.842135
v 0.512855 -0.025371 0.842135
v 0.285907 0.008663 0.757902
v 0.512855 0.008663 0.757902
v 0.285907 0.038494 0.644542
v 0.512855 0.038494 0.644542
v 0.285907 0.062976 0.506413
v 0.512855 0.062976 0.506413
v 0.285907 0.081168 0.348823
v 0.512855 0.081168 0.348823
v 0.285907 0.092370 0.177828
v 0.512855 0.092370 0.177828
v 0.285907 0.096153 -0.000001
v 0.512855 0.096153 -0.000001
v 0.285907 0.092370 -0.177830
v 0.512855 0.092370 -0.177830
v 0.285907 0.081168 -0.348825
v 0.512855 0.081168 -0.348825
v 0.285907 0.062976 -0.506415
v 0.512855 0.062976 -0.506415
v 0.285907 0.038494 -0.644544
v 0.512855 0.038494 -0.644544
v 0.285907 0.008663 -0.757903
v 0.512855 0.008663 -0.757903
v 0.285907 -0.025372 -0.842136
v 0.512855 -0.025372 -0.842136
v 0.285907 -0.062301 -0.894007
v 0.512855 -0.062301 -0.894007
v -0.532287 -0.148375 -1.000000
v -0.532287 -0.148375 1.000000
v 0.532287 -0.148375 1.000000
v 0.532287 -0.148375 -1.000000
v -0.532287 0.148375 -0.999999
v -0.532286 0.148375 1.000001
v 0.532287 0.148375 1.000000
v 0.532287 0.148375 -1.000000
v -0.285907 -0.100706 -0.911521
v -0.512855 -0.100706 -0.911521
v -0.285907 -0.139111 -0.894007
v -0.512855 -0.139111 -0.894007
v -0.285907 -0.176041 -0.842136
v -0.512855 -0.176040 -0.842136
v -0.285907 -0.210075 -0.757902
v -0.512855 -0.210075 -0.757902
v -0.285907 -0.239906 -0.644543
v -0.512855 -0.239906 -0.644543
v -0.285907 -0.264388 -0.506414
v -0.512855 -0.264388 -0.506414
v -0.285907 -0.282580 -0.348824
v -0.512855 -0.282580 -0.348824
v -0.285907 -0.293782 -0.177829
v -0.512855 -0.293782 -0.177829
v -0.285907 -0.297565 -0.000000
v -0.512855 -0.297565 -0.000000
v -0.285907 -0.293782 0.177829
v -0.512855 -0.293782 0.177829
v -0.285907 -0.282580 0.348824
v -0.512855 -0.282580 0.348824
v -0.285907 -0.264388 0.506414
v -0.512855 -0.264388 0.506414
v -0.285907 -0.239906 0.644543
v -0.512855 -0.239906 0.644543
v -0.285907 -0.210075 0.757902
v -0.512855 -0.210075 0.757902
v -0.285907 -0.176041 0.842136
v -0.512855 -0.176040 0.842136
v -0.285907 -0.139111 0.894006
v -0.512855 -0.139111 0.894006
v -0.285907 -0.100706 0.911521
v -0.512855 -0.100706 0.911521
v -0.285907 -0.062301 0.894006
v -0.512855 -0.062301 0.894006
v -0.285907 -0.025371 0.842135
v -0.512855 -0.025371 0.842135
v -0.285907 0.008663 0.757902
v -0.512855 0.008663 0.757902
v -0.285907 0.038494 0.644542
v -0.512855 0.038494 0.644542
v -0.285907 0.062976 0.506413
v -0.512855 0.062976 0.506413
v -0.285907 0.081168 0.348823
v -0.512855 0.081168 0.348823
v -0.285907 0.092370 0.177828
v -0.512855 0.092370 0.177828
v -0.285907 0.096153 -0.000001
v -0.512855 0.096153 -0.000001
v -0.285907 0.092370 -0.177830
v -0.512855 0.092370 -0.177830
v -0.285907 0.081168 -0.348825
v -0.512855 0.081168 -0.348825
v -0.285907 0.062976 -0.506415
v -0.512855 0.062976 -0.506415
v -0.285907 0.038494 -0.644544
v -0.512855 0.038494 -0.644544
v -0.285907 0.008663 -0.757903
v -0.512855 0.008663 -0.757903
v -0.285907 -0.025372 -0.842136
v -0.512855 -0.025372 -0.842136
v -0.285907 -0.062301 -0.894007
v -0.512855 -0.062301 -0.894007
vn 0.0000 -1.0000 0.0000
vn 0.0000 1.0000 -0.0000
vn 1.0000 0.0000 0.0000
vn -0.0000 -0.0000 1.0000
vn -1.0000 -0.0000 -0.0000
vn 0.0000 0.0000 -1.0000
vn -0.0000 -0.4149 -0.9099
vn 0.0000 -0.8146 -0.5800
vn 0.0000 -0.9272 -0.3746
vn 0.0000 -0.9671 -0.2545
vn 0.0000 -0.9847 -0.1745
vn 0.0000 -0.9934 -0.1147
vn 0.0000 -0.9979 -0.0654
vn 0.0000 -0.9998 -0.0213
vn 0.0000 -0.9998 0.0213
vn 0.0000 -0.9979 0.0654
vn 0.0000 -0.9934 0.1147
vn 0.0000 -0.9847 0.1745
vn 0.0000 -0.9671 0.2545
vn 0.0000 -0.9272 0.3746
vn -0.0000 -0.8146 0.5800
vn -0.0000 -0.4149 0.9099
vn -0.0000 0.4149 0.9098
vn 0.0000 0.8146 0.5800
vn 0.0000 0.9272 0.3746
vn -0.0000 0.9671 0.2545
vn -0.0000 0.9847 0.1745
vn 0.0000 0.9934 0.1147
vn 0.0000 0.9979 0.0654
vn 0.0000 0.9998 0.0213
vn 0.0000 0.9998 -0.0213
vn 0.0000 0.9979 -0.0654
vn -0.0000 0.9934 -0.1147
vn -0.0000 0.9847 -0.1745
vn -0.0000 0.9671 -0.2545
vn 0.0000 0.9272 -0.3746
vn -0.0000 0.8146 -0.5800
vn -0.0000 0.4149 -0.9099
usemtl Material
s off
f 1//1 2//1 3//1 4//1
f 5//2 8//2 7//2 6//2
f 1//3 5//3 6//3 2//3
f 2//4 6//4 7//4 3//4
f 3//5 7//5 8//5 4//5
f 5//6 1//6 4//6 8//6
f 9//7 10//7 12//7 11//7
f 11//8 12//8 14//8 13//8
f 13//9 14//9 16//9 15//9
f 15//10 16//10 18//10 17//10
f 17//11 18//11 20//11 19//11
f 19//12 20//12 22//12 21//12
f 21//13 22//13 24//13 23//13
f 23//14 24//14 26//14 25//14
f 25//15 26//15 28//15 27//15
f 27//16 28//16 30//16 29//16
f 29//17 30//17 32//17 31//17
f 31//18 32//18 34//18 33//18
f 33//19 34//19 36//19 35//19
f 35//20 36//20 38//20 37//20
f 37//21 38//21 40//21 39//21
f 39//22 40//22 42//22 41//22
f 41//23 42//23 44//23 43//23
f 43//24 44//24 46//24 45//24
f 45//25 46//25 48//25 47//25
f 47//26 48//26 50//26 49//26
f 49//27 50//27 52//27 51//27
f 51//28 52//28 54//28 53//28
f 53//29 54//29 56//29 55//29
f 55//30 56//30 58//30 57//30
f 57//31 58//31 60//31 59//31
f 59//32 60//32 62//32 61//32
f 61//33 62//33 64//33 63//33
f 63//34 64//34 66//34 65//34
f 65//35 66//35 68//35 67//35
f 67//36 68//36 70//36 69//36
f 12//3 10//3 72//3 70//3 68//3 66//3 64//3 62//3 60//3 58//3 56//3 54//3 52//3 50//3 48//3 46//3 44//3 42//3 40//3 38//3 36//3 34//3 32//3 30//3 28//3 26//3 24//3 22//3 20//3 18//3 16//3 14//3
f 69//37 70//37 72//37 71//37
f 71//38 72//38 10//38 9//38
f 9//5 11//5 13//5 15//5 17//5 19//5 21//5 23//5 25//5 27//5 29//5 31//5 33//5 35//5 37//5 39//5 41//5 43//5 45//5 47//5 49//5 51//5 53//5 55//5 57//5 59//5 61//5 63//5 65//5 67//5 69//5 71//5
f 73//1 76//1 75//1 74//1
f 77//2 78//2 79//2 80//2
f 73//5 74//5 78//5 77//5
f 74//4 75//4 79//4 78//4
f 75//3 76//3 80//3 79//3
f 77//6 80//6 76//6 73//6
f 81//7 83//7 84//7 82//7
f 83//8 85//8 86//8 84//8
f 85//9 87//9 88//9 86//9
f 87//10 89//10 90//10 88//10
f 89//11 91//11 92//11 90//11
f 91//12 93//12 94//12 92//12
f 93//13 95//13 96//13 94//13
f 95//14 97//14 98//14 96//14
f 97//15 99//15 100//15 98//15
f 99//16 101//16 102//16 100//16
f 101//17 103//17 104//17 102//17
f 103//18 105//18 106//18 104//18
f 105//19 107//19 108//19 106//19
f 107//20 109//20 110//20 108//20
f 109//21 111//21 112//21 110//21
f 111//22 113//22 114//22 112//22
f 113//23 115//23 116//23 114//23
f 115//24 117//24 118//24 116//24
f 117//25 119//25 120//25 118//25
f 119//26 121//26 122//26 120//26
f 121//27 123//27 124//27 122//27
f 123//28 125//28 126//28 124//28
f 125//29 127//29 128//29 126//29
f 127//30 129//30 130//30 128//30
f 129//31 131//31 132//31 130//31
f 131//32 133//32 134//32 132//32
f 133//33 135//33 136//33 134//33
f 135//34 137//34 138//34 136//34
f 137//35 139//35 140//35 138//35
f 139//36 141//36 142//36 140//36
f 84//5 86//5 88//5 90//5 92//5 94//5 96//5 98//5 100//5 102//5 104//5 106//5 108//5 110//5 112//5 114//5 116//5 118//5 120//5 122//5 124//5 126//5 128//5 130//5 132//5 134//5 136//5 138//5 140//5 142//5 144//5 82//5
f 141//37 143//37 144//37 142//37
f 143//38 81//38 82//38 144//38
f 81//3 143//3 141//3 139//3 137//3 135//3 133//3 131//3 129//3 127//3 125//3 123//3 121//3 119//3 117//3 115//3 113//3 111//3 109//3 107//3 105//3 103//3 101//3 99//3 97//3 95//3 93//3 91//3 89//3 87//3 85//3 83//3
